<!-- plh-logo-icon.svg -->
<svg xmlns="http://www.w3.org/2000/svg" width="128" height="128" viewBox="0 0 64 64" role="img" aria-labelledby="plhTitle plhDesc">
  <title id="plhTitle">PLH — Privacy Links Hoster</title>
  <desc id="plhDesc">Rounded blue badge with a shield and keyhole to symbolize privacy.</desc>
  <defs>
    <linearGradient id="g" x1="0" y1="0" x2="1" y2="1">
      <stop offset="0%" stop-color="#6aa7ff"></stop>
      <stop offset="100%" stop-color="#3d5ec9"></stop>
    </linearGradient>
  </defs>

  <!-- Badge -->
  <rect x="3" y="3" width="58" height="58" rx="14" fill="url(#g)"></rect>

  <!-- Shield -->
  <path fill="#e9edf7" d="
    M32 10
    C25.1 13.4 18 15.6 18 15.6
    V27.2
    C18 38.8 26.2 45.7 32 48.9
    C37.8 45.7 46 38.8 46 27.2
    V15.6
    C46 15.6 38.9 13.4 32 10 Z"></path>
  <path d="
    M32 10
    C25.1 13.4 18 15.6 18 15.6
    V27.2
    C18 38.8 26.2 45.7 32 48.9
    C37.8 45.7 46 38.8 46 27.2
    V15.6
    C46 15.6 38.9 13.4 32 10 Z" fill="none" stroke="#ffffff" stroke-opacity=".28" stroke-width="1"></path>

  <!-- Keyhole -->
  <circle cx="32" cy="28.5" r="5" fill="#0f1731" opacity="0.95"></circle>
  <rect x="30.5" y="33.2" width="3" height="6.8" rx="1.2" ry="1.2" fill="#0f1731" opacity="0.95"></rect>

  <!-- Subtle spark -->
  <path d="M50 18l1.2-3.2 3.2-1.2-3.2-1.2L50 9.1l-1.2 3.3-3.2 1.2 3.2 1.2L50 18z" fill="#d4ecff" opacity=".9"></path>
</svg>
